<?xml version="1.0" encoding="UTF-8" standalone="no"?><svg xmlns="http://www.w3.org/2000/svg" xmlns:xlink="http://www.w3.org/1999/xlink" clip-rule="evenodd" fill="#000000" fill-rule="evenodd" height="4422" image-rendering="optimizeQuality" preserveAspectRatio="xMidYMid meet" shape-rendering="geometricPrecision" text-rendering="geometricPrecision" version="1" viewBox="3117.0 2367.0 2910.0 4422.0" width="2910" zoomAndPan="magnify"><defs><linearGradient gradientUnits="userSpaceOnUse" id="a" x1="10043" x2="-898.9" xlink:actuate="onLoad" xlink:show="other" xlink:type="simple" y1="6303" y2="2841"><stop offset="0" stop-color="#48cfae"/><stop offset="1" stop-color="#4fc0e8"/></linearGradient></defs><g id="change1_1"><path d="m4572 6502l1208-2261c23-66 40-134 52-203 12-70 18-142 18-216 0-353-143-673-374-904-232-231-551-374-904-374s-672 143-904 374c-231 231-374 551-374 904 0 74 6 146 18 216 12 69 29 137 52 203l1208 2261zm0-3475c224 0 426 91 572 238 147 146 238 348 238 572 0 46-4 91-12 136s-19 89-34 132c-56 160-161 297-297 393-132 93-293 148-467 148s-335-55-467-148c-136-96-240-233-296-393l-1 1c-15-43-26-87-34-133-8-45-12-90-12-136 0-224 91-426 238-572 146-147 348-238 572-238zm448 362c-115-114-273-185-448-185s-333 71-448 185c-114 115-185 273-185 448 0 37 3 73 9 107 6 35 15 70 26 103 44 125 126 232 232 307 103 73 229 116 366 116s263-43 366-116c106-75 188-182 232-307 11-33 20-67 26-103 6-34 9-70 9-107 0-175-71-333-185-448zm919 927l-1289 2413c-8 16-20 29-37 37-42 23-96 7-119-36l-1286-2408c-3-6-6-11-8-18-27-76-48-156-62-237-13-81-21-162-21-245 0-402 163-765 427-1029 263-263 626-426 1028-426s765 163 1028 426c264 264 427 627 427 1029 0 83-8 164-21 245-14 81-35 161-62 237-1 4-3 8-5 12z" fill="#ddff8f" fill-rule="nonzero"/></g></svg>